<svg id="组_1" data-name="组 1" xmlns="http://www.w3.org/2000/svg" width="390" height="390" viewBox="0 0 390 390">
  <defs>
    <style>
      .cls-1 {
        fill: #fff;
      }
    </style>
  </defs>
  <rect id="矩形_2" data-name="矩形 2" class="cls-1" width="390" height="390" rx="90" ry="90"/>
  <path id="矩形_1_拷贝" data-name="矩形 1 拷贝" d="M135,195h60a0,0,0,0,1,0,0V315a0,0,0,0,1,0,0H135a60,60,0,0,1-60-60v0A60,60,0,0,1,135,195Z"/>
  <path id="矩形_1" data-name="矩形 1" d="M195,75h60a60,60,0,0,1,60,60v0a60,60,0,0,1-60,60H195a0,0,0,0,1,0,0V75A0,0,0,0,1,195,75Z"/>
</svg>
