<svg
      xmlns="http://www.w3.org/2000/svg"
      width="600"
      height="600"
      viewBox="-148 -148 600 600"
>
      <path
            class="cls-1"
            d="M47 46h40v40H47zM47 88h40v40H47zM47 130h40v40H47zM47 172h40v40H47zM47 214h40v40H47z"
            fill="white"
      />
      <g>
            <path
                  class="cls-1"
                  d="M129 46h40v40h-40zM129 88h40v40h-40zM129 130h40v40h-40zM129 172h40v40h-40zM129 214h40v40h-40z"
                  fill="white"
            />
            <g>
                  <path
                        class="cls-1"
                        d="M171 130h40v40h-40zM213 130h40v40h-40z"
                        fill="white"
                  />
            </g>
            <g>
                  <path
                        class="cls-1"
                        d="M171 46h40v40h-40zM213 46h40v40h-40z"
                        fill="white"
                  />
            </g>
      </g>
</svg>