<svg
	fill="currentColor"
	fill-rule="evenodd"
	width="100%"
	height="100%"
	viewBox="45 2 77 20"
	xmlns="http://www.w3.org/2000/svg"
>
	<title>MiMo</title>
	<path
		d="M109.72 2.376a1.58 1.58 0 01.923.082 1.583 1.583 0 01.991 1.475v16.47a1.593 1.593 0 01-.463 1.126 1.59 1.59 0 01-2.714-1.125V7.847l-5.769 5.966a1.596 1.596 0 01-2.268.057 1.593 1.593 0 01-.228-.285L91.914 5.04a1.593 1.593 0 01.075-2.206 1.59 1.59 0 012.203-.008l7.354 7.58 7.362-7.58c.219-.228.502-.385.812-.45zM116.876 2.391c.413 0 .81.16 1.107.449.295.288.466.68.477 1.093v16.476a1.584 1.584 0 01-2.706 1.12 1.591 1.591 0 01-.465-1.123V3.933a1.585 1.585 0 011.587-1.542zM123.707 9.366a1.587 1.587 0 011.585 1.589v9.449a1.593 1.593 0 01-.463 1.125 1.59 1.59 0 01-2.246 0 1.596 1.596 0 01-.463-1.125v-9.45a1.588 1.588 0 011.587-1.588zM123.712 2.282a1.591 1.591 0 011.132.545l7.366 7.59 7.352-7.59a1.583 1.583 0 012.441.228c.176.26.27.567.272.88v16.471a1.598 1.598 0 01-1.577 1.589 1.587 1.587 0 01-1.585-1.589V7.85l-5.769 5.966a1.597 1.597 0 01-1.117.481 1.592 1.592 0 01-1.129-.448l-.019-.023-.015-.012-8.496-8.775a1.597 1.597 0 01-.51-1.148 1.6 1.6 0 01.481-1.16c.154-.15.34-.267.542-.344.201-.077.416-.113.631-.104zM93.056 9.426a1.592 1.592 0 011.59 1.529v9.449a1.6 1.6 0 01-.469 1.125 1.59 1.59 0 01-.517.342 1.587 1.587 0 01-2.191-1.467v-9.45a1.592 1.592 0 011.587-1.528zM147.235 6.461a1.587 1.587 0 011.832 2.256 6.82 6.82 0 00-.772 4.238 6.819 6.819 0 001.926 3.855 6.803 6.803 0 008.082 1.155 1.595 1.595 0 012.157.624 1.603 1.603 0 01-.151 1.76c-.13.163-.291.299-.473.4a9.903 9.903 0 01-4.777 1.224 9.962 9.962 0 01-7.014-2.853 9.98 9.98 0 01-2.989-6.96 9.993 9.993 0 011.231-4.973 1.59 1.59 0 01.948-.726zM150.224 3.236a9.975 9.975 0 016.21-1.13 9.98 9.98 0 018.465 8.475 10.003 10.003 0 01-1.126 6.216 1.592 1.592 0 01-1.392.828 1.59 1.59 0 01-1.391-2.357 6.819 6.819 0 00-1.154-8.093 6.802 6.802 0 00-8.085-1.155 1.582 1.582 0 01-1.223.158 1.588 1.588 0 01-1.159-1.365 1.596 1.596 0 01.364-1.183c.136-.162.302-.297.491-.394z"
		transform="translate(-44.907 0)"
	></path>
</svg>
